<svg xmlns="http://www.w3.org/2000/svg" width="24.095" height="19.987" viewBox="0 0 24.095 19.987"><g fill="none" stroke="#080808" stroke-linecap="round" stroke-linejoin="round" stroke-width="1.5" data-name="Icon feather-camera" transform="translate(0.75 0.75)"><path d="M24.095,20.933a2.054,2.054,0,0,1-2.054,2.054H3.554A2.054,2.054,0,0,1,1.5,20.933V9.635A2.054,2.054,0,0,1,3.554,7.581H7.662L9.716,4.5h6.162l2.054,3.081h4.108a2.054,2.054,0,0,1,2.054,2.054Z" data-name="パス 1" transform="translate(-1.5 -4.5)"/><path d="M20.216,17.608A4.108,4.108,0,1,1,16.108,13.5,4.108,4.108,0,0,1,20.216,17.608Z" data-name="パス 2" transform="translate(-4.811 -7.338)"/></g></svg>