<?xml version="1.0" encoding="utf-8"?>
<!-- Generator: Adobe Illustrator 25.4.1, SVG Export Plug-In . SVG Version: 6.00 Build 0)  -->
<svg version="1.1" id="レイヤー_1" xmlns="http://www.w3.org/2000/svg" xmlns:xlink="http://www.w3.org/1999/xlink" x="0px"
	 y="0px" viewBox="0 0 24 24" style="enable-background:new 0 0 24 24;" xml:space="preserve">
<style type="text/css">
	.st0{fill:#CCCCCC;}
</style>
<path class="st0" d="M20.9,19.7l-5.1-5.1c2.5-3.1,1.9-7.7-1.2-10.1S7,2.6,4.5,5.7s-1.9,7.7,1.2,10.1c2.7,2.1,6.4,2.1,9-0.1l5,5.1
	c0.3,0.3,0.8,0.3,1.1,0C21.1,20.5,21.2,20.1,20.9,19.7z M10.1,15.8c-3.1,0-5.7-2.6-5.7-5.7C4.4,7,7,4.4,10.1,4.4
	c3.1,0,5.7,2.6,5.7,5.7c0,1.5-0.6,3-1.7,4C13.1,15.2,11.6,15.8,10.1,15.8z"/>
</svg>
