<?xml version="1.0" encoding="utf-8"?>
<!-- Generator: Adobe Illustrator 25.4.1, SVG Export Plug-In . SVG Version: 6.00 Build 0)  -->
<svg version="1.1" id="レイヤー_1" xmlns="http://www.w3.org/2000/svg" xmlns:xlink="http://www.w3.org/1999/xlink" x="0px"
	 y="0px" viewBox="0 0 24 24" style="enable-background:new 0 0 24 24;" xml:space="preserve">
<style type="text/css">
	.st0{fill:#F0DE00;}
</style>
<path id="Icon_ionic-ios-star-outline" class="st0" d="M21.9,9h-7.1l-2.1-6.3c-0.2-0.4-0.6-0.6-1-0.4c-0.2,0.1-0.4,0.3-0.4,0.4
	L9.1,9H2C1.6,9,1.2,9.3,1.2,9.7v0.1c0,0.2,0.2,0.4,0.4,0.5l5.8,4l-2.2,6.3c-0.1,0.3,0,0.6,0.3,0.9c0.1,0.2,0.3,0.2,0.4,0.3
	c0.2,0,0.4-0.1,0.4-0.2l5.6-3.9l5.6,3.9c0.2,0.1,0.3,0.2,0.4,0.2s0.3-0.1,0.4-0.2c0.3-0.2,0.4-0.5,0.3-0.9l-2.2-6.3l5.7-4l0.2-0.1
	c0.3-0.3,0.4-0.4,0.4-0.6C22.7,9.3,22.3,9,21.9,9z"/>
</svg>
