<svg xmlns="http://www.w3.org/2000/svg" width="37.2" height="18.1" viewBox="0 0 37.2 18.1">
  <path id="パス_19" data-name="パス 19" d="M-5.18-1.16V.22H-2.6a13.709,13.709,0,0,1-.08-1.74V-12.96c0-.74.02-1.14.06-1.66-.46.04-.82.06-1.68.06H-15.66c-.8,0-1.22-.02-1.7-.06a13.282,13.282,0,0,1,.08,1.68V-1.48A13.365,13.365,0,0,1-17.36.24h2.58v-1.4Zm0-2.28h-9.6V-12.3h9.6ZM17.3-13.5a13.374,13.374,0,0,0-1.78-3.16l-1.46.54A14.931,14.931,0,0,1,15.34-14H5.06a12.709,12.709,0,0,1-2.58-.14v2.6a17.73,17.73,0,0,1,2.56-.1H13.8v8.72H4.7a12.375,12.375,0,0,1-2.5-.14V-.48a16.555,16.555,0,0,1,2.46-.1l9.12.02V.64h2.68a12.486,12.486,0,0,1-.1-2.04V-13.12Zm2.54-.92a11.133,11.133,0,0,0-1.76-3.04l-1.42.56a13.528,13.528,0,0,1,1.72,3.1Z" transform="translate(17.36 17.46)" fill="#fff"/>
</svg>
