<?xml version="1.0" encoding="utf-8"?>
<!-- Generator: Adobe Illustrator 25.4.1, SVG Export Plug-In . SVG Version: 6.00 Build 0)  -->
<svg version="1.1" id="レイヤー_1" xmlns="http://www.w3.org/2000/svg" xmlns:xlink="http://www.w3.org/1999/xlink" x="0px"
	 y="0px" viewBox="0 0 22 22" style="enable-background:new 0 0 22 22;" xml:space="preserve">
<style type="text/css">
	.st0{fill:#D0D0D0;}
</style>
<path class="st0" d="M8.3,8.8h2.2V11H8.3V8.8z M11.5,8.8h2.2V11h-2.2L11.5,8.8z M14.8,8.8H17V11h-2.2L14.8,8.8z M5,15.4h2.2v2.2H5
	V15.4z M8.3,15.4h2.2v2.2H8.3L8.3,15.4z M11.5,15.4h2.2v2.2h-2.2L11.5,15.4z M8.3,12.1h2.2v2.2H8.3V12.1z M11.5,12.1h2.2v2.2h-2.2
	L11.5,12.1z M14.8,12.1H17v2.2h-2.2L14.8,12.1z M5,12.1h2.2v2.2H5L5,12.1z M17,2.3v1.1h-2.2V2.3H7.2v1.1H5V2.3H2.8v17.4h16.3V2.3
	C19.2,2.3,17,2.3,17,2.3z M18.1,18.6H3.9v-12h14.2L18.1,18.6z"/>
</svg>
