<?xml version="1.0" encoding="utf-8"?>
<!-- Generator: Adobe Illustrator 25.4.1, SVG Export Plug-In . SVG Version: 6.00 Build 0)  -->
<svg version="1.1" id="レイヤー_1" xmlns="http://www.w3.org/2000/svg" xmlns:xlink="http://www.w3.org/1999/xlink" x="0px"
	 y="0px" viewBox="0 0 24 24" style="enable-background:new 0 0 24 24;" xml:space="preserve">
<g transform="translate(-3.375 -5.625)">
	<path d="M18.1,23.2c-0.4,0-0.7,0.3-0.7,0.7c0,0.5-0.4,0.9-0.9,0.9h-9c-0.5,0-0.9-0.4-0.9-0.9V11.3c0-0.5,0.4-0.9,0.9-0.9h9
		c0.5,0,0.9,0.4,0.9,0.9c0,0.4,0.3,0.7,0.7,0.7c0.4,0,0.7-0.3,0.7-0.7l0,0c0-1.2-1-2.2-2.2-2.2l0,0h-9c-1.2,0-2.2,1-2.2,2.2l0,0
		v12.6c0,1.2,1,2.2,2.2,2.2h9c1.2,0,2.2-1,2.2-2.2C18.8,23.6,18.5,23.2,18.1,23.2z"/>
	<path d="M21,12.9c-0.1-0.1-0.3-0.2-0.5-0.2s-0.4,0.1-0.5,0.2c-0.3,0.3-0.3,0.7,0,1l0,0l3.2,3.1H10.8c-0.4,0-0.7,0.3-0.7,0.7
		s0.3,0.7,0.7,0.7l0,0h12.4l-3.1,3.1c-0.3,0.3-0.3,0.7,0,1l0,0c0.1,0.1,0.3,0.2,0.5,0.2s0.4-0.1,0.5-0.2l4-4c0.4-0.4,0.4-1,0.1-1.3
		c0,0,0,0-0.1-0.1L21,12.9z"/>
</g>
</svg>
