<svg xmlns="http://www.w3.org/2000/svg" width="51.5" height="64.5" viewBox="0 0 51.5 64.5">
  <g id="Group_1" data-name="Group 1" transform="translate(-191 -381.5)">
    <g id="Subtraction_1" data-name="Subtraction 1" transform="translate(191 362.713)" fill="#ccc">
      <path d="M 44.00010299682617 82.78780364990234 L 7.000204563140869 82.78780364990234 C 3.415984392166138 82.78780364990234 0.5000044703483582 79.871826171875 0.5000044703483582 76.28760528564453 L 0.5000044703483582 26.28720283508301 C 0.5000044703483582 22.70298385620117 3.415984392166138 19.78700256347656 7.000204563140869 19.78700256347656 L 33.22346115112305 19.78700256347656 L 50.50030517578125 38.31443023681641 L 50.50030517578125 76.28760528564453 C 50.50030517578125 79.871826171875 47.58432388305664 82.78780364990234 44.00010299682617 82.78780364990234 Z" stroke="none"/>
      <path d="M 44.00010299682617 82.28780364990234 C 47.30862426757813 82.28780364990234 50.00030517578125 79.59612274169922 50.00030517578125 76.28760528564453 L 50.00030517578125 38.51137924194336 L 33.00605773925781 20.28700256347656 L 7.000204563140869 20.28700256347656 C 3.691684484481812 20.28700256347656 1.000004529953003 22.97868347167969 1.000004529953003 26.28720283508301 L 1.000004529953003 76.28760528564453 C 1.000004529953003 79.59612274169922 3.691684484481812 82.28780364990234 7.000204563140869 82.28780364990234 L 44.00010299682617 82.28780364990234 M 44.00010299682617 83.28780364990234 L 7.000204563140869 83.28780364990234 C 3.140284538269043 83.28780364990234 4.495239409152418e-06 80.14752197265625 4.495239409152418e-06 76.28760528564453 L 4.495239409152418e-06 26.28720283508301 C 4.495239409152418e-06 22.42728233337402 3.140284538269043 19.28700256347656 7.000204563140869 19.28700256347656 L 33.44087600708008 19.28700256347656 L 51.00030517578125 38.11747360229492 L 51.00030517578125 76.28760528564453 C 51.00030517578125 80.14752197265625 47.86002349853516 83.28780364990234 44.00010299682617 83.28780364990234 Z" stroke="none" fill="#ccc"/>
    </g>
    <line id="Line_1" data-name="Line 1" x2="8" transform="translate(202.5 403.5)" fill="none" stroke="#fff" stroke-width="2"/>
    <line id="Line_2" data-name="Line 2" x2="27" transform="translate(202.5 417.5)" fill="none" stroke="#fff" stroke-width="2"/>
    <line id="Line_3" data-name="Line 3" x2="27" transform="translate(203 429.5)" fill="none" stroke="#fff" stroke-width="2"/>
    <line id="Line_4" data-name="Line 4" y2="20" transform="translate(224.5 381.5)" fill="none" stroke="#fff" stroke-width="2"/>
    <line id="Line_5" data-name="Line 5" x1="19" transform="translate(223.5 401.5)" fill="none" stroke="#fff" stroke-width="2"/>
  </g>
</svg>
