<svg xmlns="http://www.w3.org/2000/svg" width="19.996" height="20" viewBox="0 0 19.996 20"><defs><style>.a{fill:none;}.b{fill:#797152;}</style></defs><g transform="translate(0)"><rect class="a" width="19.996" height="20" transform="translate(0 0)"/><path class="b" d="M9.452,1.289,9.117.954H0V20H13.627V5.462l-.335-.335Zm3.03,17.562H1.145V2.1H7.619c1.7,0,.88,4.029.88,4.029s3.932-.956,3.982.846ZM19.662,3.733,15.946.019H10.159L11.3,1.163H14.58c0,.013,0,.025,0,.038.51,0,.764.414.873.958a8.161,8.161,0,0,1-.1,2.551l.016,0-.009.041s3.069-.746,3.465.491c0,.013.007.028.011.041s.006.028.009.041a.907.907,0,0,1,.013.134V15.909H14.829v1.144H20V4.068Z" transform="translate(0 -0.019)"/></g></svg>