<svg xmlns="http://www.w3.org/2000/svg" width="20" height="20" viewBox="0 0 20 20"><defs><style>.a{fill:none;}.b{fill:#00b900;}.b,.c{fill-rule:evenodd;}.c{fill:#fff;}</style></defs><rect class="a" width="20" height="20"/><path class="b" d="M16.35.118H3.677A3.608,3.608,0,0,0,.05,3.692V16.278a3.608,3.608,0,0,0,3.6,3.6H16.322a3.608,3.608,0,0,0,3.627-3.575V3.72a3.607,3.607,0,0,0-3.6-3.6"/><path class="c" d="M17.212,9.13c0-3.22-3.25-5.839-7.245-5.839S2.722,5.911,2.722,9.13c0,2.886,2.577,5.3,6.059,5.761.236.05.557.154.638.355a1.469,1.469,0,0,1,.023.651l-.1.616c-.032.182-.146.711.628.388a23.38,23.38,0,0,0,5.692-4.177h0A5.176,5.176,0,0,0,17.212,9.13"/><path class="b" d="M8.5,7.574H7.987a.141.141,0,0,0-.141.14v3.135a.141.141,0,0,0,.141.14H8.5a.141.141,0,0,0,.141-.14V7.714a.141.141,0,0,0-.141-.14"/><path class="b" d="M11.993,7.574h-.508a.141.141,0,0,0-.141.14V9.577L9.9,7.637l-.011-.014h0l-.008-.009,0,0L9.866,7.6l0,0-.007,0,0,0-.007,0,0,0-.008,0,0,0-.008,0h0l-.008,0H9.271a.141.141,0,0,0-.141.14v3.135a.141.141,0,0,0,.141.14H9.78a.141.141,0,0,0,.141-.14V8.987l1.448,1.943a.137.137,0,0,0,.036.034h0l.009.005,0,0,.007,0,.007,0,0,0,.01,0h0a.134.134,0,0,0,.036,0h.508a.14.14,0,0,0,.141-.14V7.714a.141.141,0,0,0-.141-.14"/><path class="b" d="M7.27,10.2H5.889V7.714a.141.141,0,0,0-.141-.14H5.24a.141.141,0,0,0-.141.14v3.135h0a.139.139,0,0,0,.039.1l0,0,0,0a.141.141,0,0,0,.1.039H7.27a.14.14,0,0,0,.141-.14v-.5a.14.14,0,0,0-.141-.14"/><path class="b" d="M14.8,8.359a.141.141,0,0,0,.141-.14v-.5a.141.141,0,0,0-.141-.14h-2.03a.14.14,0,0,0-.1.04h0l0,0a.139.139,0,0,0-.039.1h0v3.134h0a.138.138,0,0,0,.039.1l0,0,0,0a.14.14,0,0,0,.1.039H14.8a.141.141,0,0,0,.141-.14v-.5a.141.141,0,0,0-.141-.14H13.419v-.53H14.8a.141.141,0,0,0,.141-.14v-.5a.141.141,0,0,0-.141-.14H13.419v-.53Z"/></svg>