<?xml version="1.0" encoding="utf-8"?>
<!-- Generator: Adobe Illustrator 25.4.1, SVG Export Plug-In . SVG Version: 6.00 Build 0)  -->
<svg version="1.1" id="レイヤー_1" xmlns="http://www.w3.org/2000/svg" xmlns:xlink="http://www.w3.org/1999/xlink" x="0px"
	 y="0px" viewBox="0 0 22 22" style="enable-background:new 0 0 22 22;" xml:space="preserve">
<style type="text/css">
	.st0{fill:#D0D0D0;}
</style>
<path class="st0" d="M19.3,19.8h-0.8V1.9c0-0.5-0.4-0.9-0.9-0.9c0,0,0,0,0,0H4.4c-0.5,0-0.9,0.4-0.9,0.9v17.9H2.7
	c-0.3,0-0.5,0.2-0.5,0.5c0,0,0,0,0,0V21h17.6v-0.8C19.8,20,19.6,19.8,19.3,19.8z M7.2,3.9c0-0.3,0.2-0.5,0.5-0.5c0,0,0,0,0,0h1.6
	c0.3,0,0.5,0.2,0.5,0.5c0,0,0,0,0,0v1.6C9.7,5.8,9.5,6,9.3,6h0H7.7C7.4,6,7.2,5.8,7.2,5.5v0L7.2,3.9z M7.2,7.7
	c0-0.3,0.2-0.5,0.5-0.5c0,0,0,0,0,0h1.6c0.3,0,0.5,0.2,0.5,0.5v0v1.6c0,0.3-0.2,0.5-0.5,0.5H7.7c-0.3,0-0.5-0.2-0.5-0.5L7.2,7.7z
	 M9.3,13.5H7.7c-0.3,0-0.5-0.2-0.5-0.5v-1.6c0-0.3,0.2-0.5,0.5-0.5h1.6c0.3,0,0.5,0.2,0.5,0.5V13C9.7,13.3,9.5,13.5,9.3,13.5z
	 M12.3,19.8H9.7v-3.3c0-0.3,0.2-0.5,0.5-0.5h1.6c0.3,0,0.5,0.2,0.5,0.5V19.8z M14.8,13c0,0.3-0.2,0.5-0.5,0.5h-1.6
	c-0.3,0-0.5-0.2-0.5-0.5v-1.6c0-0.3,0.2-0.5,0.5-0.5h1.6c0.3,0,0.5,0.2,0.5,0.5L14.8,13z M14.8,9.3c0,0.3-0.2,0.5-0.5,0.5h-1.6
	c-0.3,0-0.5-0.2-0.5-0.5V7.7c0-0.3,0.2-0.5,0.5-0.5h1.6c0.3,0,0.5,0.2,0.5,0.5L14.8,9.3z M14.8,5.5c0,0.3-0.2,0.5-0.5,0.5h-1.6
	c-0.3,0-0.5-0.2-0.5-0.5V3.9c0-0.3,0.2-0.5,0.5-0.5h1.6c0.3,0,0.5,0.2,0.5,0.5L14.8,5.5z"/>
</svg>
