<?xml version="1.0" encoding="utf-8"?>
<!-- Generator: Adobe Illustrator 25.4.1, SVG Export Plug-In . SVG Version: 6.00 Build 0)  -->
<svg version="1.1" id="レイヤー_1" xmlns="http://www.w3.org/2000/svg" xmlns:xlink="http://www.w3.org/1999/xlink" x="0px"
	 y="0px" viewBox="0 0 24 24" style="enable-background:new 0 0 24 24;" xml:space="preserve">
<style type="text/css">
	.st0{fill:#CCCCCC;}
</style>
<path class="st0" d="M16,10.8c1.6,0,2.9-1.4,2.9-3c0-1.6-1.4-2.9-3-2.9C14.3,5,13,6.3,13,7.9C13,9.5,14.4,10.8,16,10.8z M8,10.8
	c1.6,0,2.9-1.4,2.9-3c0-1.6-1.4-2.9-3-2.9C6.3,5,5,6.3,5,7.9C5,9.5,6.4,10.8,8,10.8z M8,13c-2.3,0-7,1.1-7,3.4v2.6h14.1v-2.6
	C15.1,14.1,10.4,13,8,13L8,13z M16,13.5c-0.3,0-0.6,0-0.9,0c1,0.5,1.7,1.7,1.6,2.8v2.6H23v-2.6C23,14.1,18.3,13.5,16,13.5L16,13.5z"
	/>
</svg>
