<?xml version="1.0" encoding="utf-8"?>
<!-- Generator: Adobe Illustrator 25.4.1, SVG Export Plug-In . SVG Version: 6.00 Build 0)  -->
<svg version="1.1" id="レイヤー_1" xmlns="http://www.w3.org/2000/svg" xmlns:xlink="http://www.w3.org/1999/xlink" x="0px"
	 y="0px" viewBox="0 0 22 22" style="enable-background:new 0 0 22 22;" xml:space="preserve">
<style type="text/css">
	.st0{fill:#D0D0D0;}
</style>
<path class="st0" d="M19.1,3.1l-3.6-0.8c-0.4-0.1-0.8,0.1-0.9,0.5L13,6.6c-0.1,0.3,0,0.7,0.2,1l2.1,1.7c-1.3,2.7-3.4,4.8-6.1,6.1
	l-1.7-2.1c-0.2-0.3-0.6-0.4-1-0.2l-3.8,1.7c-0.4,0.2-0.6,0.6-0.5,0.9l0.8,3.6c0.1,0.4,0.4,0.6,0.8,0.6c8.8,0,15.9-7.1,15.9-15.9
	c0,0,0,0,0,0C19.8,3.5,19.5,3.1,19.1,3.1z"/>
</svg>
